<svg id="Слой_1" xmlns="http://www.w3.org/2000/svg" width="64" height="64" viewBox="0 0 64 64"><path fill="#FCC200" d="M31.917,61.947C15.671,61.947,2.5,48.777,2.5,32.529c0-16.246,13.171-29.415,29.417-29.415 c16.244,0,29.415,13.168,29.415,29.415C61.332,48.777,48.161,61.947,31.917,61.947"/><path fill="#FFF" d="M13.767,55.591H50.19c1.343-1.06,2.591-2.231,3.729-3.506V4.412H9.914v47.531 C11.086,53.271,12.375,54.492,13.767,55.591z"/><path fill="#FFF" d="M53.92,1.219c0-0.182-0.15-0.331-0.333-0.331C53.77,0.888,53.92,1.038,53.92,1.219z"/><path fill="#D2E7F2" d="M31.979,61.916c6.879,0,13.201-2.368,18.211-6.325H13.767C18.777,59.548,25.1,61.916,31.979,61.916z"/><path fill="#D2E7F2" d="M10.246,0.888c-0.185,0-0.332,0.149-0.332,0.331C9.914,1.038,10.061,0.888,10.246,0.888z"/><path fill="#D2E7F2" d="M53.587,0.888H10.246c-0.185,0-0.332,0.15-0.332,0.331v3.193H53.92V1.219 C53.92,1.038,53.77,0.888,53.587,0.888z"/><path fill="#2F97CB" d="M9.915 15.891H53.92V32.529H9.915z"/><path fill="#D2E7F2" d="M19.917 21.042H43.828V22.611H19.917z"/><path fill="#D2E7F2" d="M17.367 24.141H46.379000000000005V24.534H17.367z"/><path fill="#D2E7F2" d="M16.189 25.563H47.559V25.956999999999997H16.189z"/><path fill="#D2E7F2" d="M20.035 26.986H43.712V27.379H20.035z"/><path fill="#D2E7F2" d="M26.03 7.927H37.803V10.708H26.03z"/><path fill="#A0C9D9" d="M15.526 12.263H21.353V12.655H15.526z"/><path fill="#A0C9D9" d="M22.265 12.263H28.092V12.655H22.265z"/><path fill="#A0C9D9" d="M29.003 12.263H34.829V12.655H29.003z"/><path fill="#A0C9D9" d="M35.743 12.263H41.568000000000005V12.655H35.743z"/><path fill="#A0C9D9" d="M42.479 12.263H48.307V12.655H42.479z"/><path fill="#FFF" d="M51.646 23.376L51.361 23.585 51.687 24.033 50.417 24.033 50.417 24.387 51.686 24.387 51.361 24.836 51.646 25.044 52.25 24.209z"/><path fill="#FFF" d="M13.416 24.033L12.147 24.033 12.474 23.585 12.188 23.376 11.581 24.209 12.188 25.044 12.474 24.836 12.148 24.387 13.416 24.387z"/><path fill="#D2E7F2" d="M13.608 34.809H24.268V45.471H13.608z"/><path fill="#A0C9D9" d="M24.444,34.632H13.432v11.013h11.013L24.444,34.632L24.444,34.632z M13.785,35.233l4.903,4.905 l-4.903,4.903V35.233z M14.035,34.984h9.807l-4.903,4.904L14.035,34.984z M18.938,40.389l4.901,4.902h-9.803L18.938,40.389z M19.188,40.138l4.903-4.904v9.809L19.188,40.138z"/><path fill="#D2E7F2" d="M26.587 34.809H37.248V45.471H26.587z"/><path fill="#A0C9D9" d="M26.41,34.632v11.013h11.012V34.632H26.41z M26.765,35.234l4.902,4.904l-4.902,4.903V35.234z M27.013,34.984h9.805l-4.901,4.904L27.013,34.984z M31.917,40.388l4.901,4.903h-9.802L31.917,40.388z M32.167,40.138l4.906-4.907 v9.813L32.167,40.138z"/><path fill="#D2E7F2" d="M39.564 34.809H50.224000000000004V45.471H39.564z"/><path fill="#A0C9D9" d="M39.391,34.632v11.013h11.012V34.632H39.391z M39.744,35.237l4.901,4.901l-4.901,4.9V35.237z M39.993,34.984H49.8l-4.904,4.904L39.993,34.984z M44.896,40.389l4.903,4.902h-9.805L44.896,40.389z M45.146,40.139l4.903-4.904 v9.81L45.146,40.139z"/><path fill="#D2E7F2" d="M13.432 47.891H24.221V48.282H13.432z"/><path fill="#D2E7F2" d="M13.432 48.912H23.248V49.305H13.432z"/><path fill="#D2E7F2" d="M13.432 49.93H24.221V50.326H13.432z"/><path fill="#D2E7F2" d="M13.432 50.952H22.043V51.344H13.432z"/><path fill="#2F97CB" d="M13.432 46.92H19.26V47.311H13.432z"/><path fill="#D2E7F2" d="M26.41 47.891H37.199V48.282H26.41z"/><path fill="#D2E7F2" d="M26.41 48.912H36.226V49.305H26.41z"/><path fill="#D2E7F2" d="M26.41 49.93H37.199V50.326H26.41z"/><path fill="#D2E7F2" d="M26.41 50.952H35.019V51.344H26.41z"/><path fill="#2F97CB" d="M26.41 46.92H32.238V47.311H26.41z"/><path fill="#D2E7F2" d="M39.389 47.891H50.175000000000004V48.282H39.389z"/><path fill="#D2E7F2" d="M39.389 48.912H49.204V49.305H39.389z"/><path fill="#D2E7F2" d="M39.389 49.93H50.175000000000004V50.326H39.389z"/><path fill="#D2E7F2" d="M39.389 50.952H48V51.344H39.389z"/><path fill="#2F97CB" d="M39.389 46.92H45.215V47.311H39.389z"/><path fill="#BBBE2F" d="M15.599,2.62c0,0.312-0.252,0.565-0.563,0.565c-0.313,0-0.566-0.253-0.566-0.565s0.254-0.564,0.566-0.564 C15.347,2.055,15.599,2.308,15.599,2.62"/><path fill="#FECB00" d="M13.757,2.62c0,0.312-0.251,0.565-0.564,0.565c-0.311,0-0.564-0.253-0.564-0.565s0.253-0.564,0.564-0.564 C13.506,2.055,13.757,2.308,13.757,2.62"/><path fill="#E95B1D" d="M11.916,2.62c0,0.312-0.251,0.565-0.565,0.565c-0.313,0-0.563-0.253-0.563-0.565s0.251-0.564,0.563-0.564 C11.665,2.055,11.916,2.308,11.916,2.62"/></svg>