<svg id="Слой_1" xmlns="http://www.w3.org/2000/svg" width="64" height="64" viewBox="0 0 64 64"><g fill="#58595B"><path d="M44.714,19.23h-1.607v6.067h1.607c0.971,0,1.758-0.788,1.758-1.759V20.99 C46.472,20.019,45.685,19.23,44.714,19.23z"/><path d="M44.714,26.16h-1.607v6.066h1.607c0.971,0,1.758-0.789,1.758-1.759v-2.549 C46.472,26.947,45.685,26.16,44.714,26.16z"/><path d="M44.714,33.086h-1.607v6.067h1.607c0.971,0,1.758-0.788,1.758-1.76v-2.548 C46.472,33.877,45.685,33.086,44.714,33.086z"/><path d="M41.273,17.897H22.762c-0.584,0-1.056,0.472-1.056,1.058v23.799c0,0.584,0.472,1.058,1.056,1.058h18.511 c0.583,0,1.058-0.474,1.058-1.058V18.955C42.331,18.37,41.856,17.897,41.273,17.897z M38.233,27.887h-12.43V21.82h12.43V27.887z"/><path d="M26.906 23.603H37.263V24.268H26.906z"/><path d="M26.906 25.45H37.263V26.117H26.906z"/></g><g fill="#58595B"><path d="M0.465 29.557H10.419V32.152H0.465z"/><path d="M53.751 29.557H63.705V32.152H53.751z"/></g></svg>