<svg id="Слой_1" xmlns="http://www.w3.org/2000/svg" width="64" height="64" viewBox="0 0 64 64"><path fill="#58595B" d="M32 18.293L36.04 26.465 45.055 27.776 38.531 34.14 40.072 43.119 32 38.882 23.935 43.119 25.476 34.14 18.948 27.776 27.971 26.465z"/><path fill="#58595B" d="M30.716 53.46H33.287V63.32H30.716z"/><path fill="#58595B" d="M30.716 0.664H33.287V10.527H30.716z"/><path fill="#58595B" d="M53.468 30.708H63.32900000000001V33.277H53.468z"/><path fill="#58595B" d="M0.673 30.708H10.536V33.277H0.673z"/><path transform="rotate(-45.01 50.666 13.328)" fill="#58595B" d="M45.735 12.043H55.597V14.611999999999998H45.735z"/><path transform="rotate(-45 13.332 50.657)" fill="#58595B" d="M8.403 49.374H18.266V51.943000000000005H8.403z"/><path transform="rotate(-135 13.334 13.326)" fill="#58595B" d="M8.403 12.041H18.265V14.611H8.403z"/><path transform="rotate(-135.008 50.665 50.658)" fill="#58595B" d="M45.733 49.372H55.595V51.941H45.733z"/></svg>