<?xml version="1.0" encoding="UTF-8"?><!DOCTYPE svg PUBLIC "-//W3C//DTD SVG 1.1//EN" "http://www.w3.org/Graphics/SVG/1.1/DTD/svg11.dtd"><svg xmlns="http://www.w3.org/2000/svg" height="1216" viewBox="0 0 64 1216" width="64"><svg height="64" viewBox="0 0 64 64" width="64" x="0" y="0"><path fill-rule="evenodd" clip-rule="evenodd" fill="#FFF" d="M50.382,34.214c-0.919-1.829-3.465-3.35-6.849-0.71 c-4.572,3.569-11.918,3.569-11.918,3.569s-7.347,0-11.919-3.569c-3.384-2.64-5.93-1.119-6.849,0.71 c-1.603,3.188,0.208,4.729,4.294,7.326c3.49,2.219,8.285,3.048,11.383,3.357l-2.585,2.56c-3.642,3.606-7.156,7.087-9.595,9.501 c-1.458,1.443-1.458,3.785,0,5.23l0.44,0.435c0.727,0.72,1.68,1.08,2.634,1.082h0.013c0.954-0.002,1.906-0.362,2.633-1.082 l9.595-9.502c3.641,3.605,7.155,7.086,9.593,9.502c1.458,1.443,3.822,1.443,5.28,0l0.44-0.437c1.459-1.444,1.458-3.785,0-5.229 l-9.595-9.501l-2.593-2.567c3.099-0.315,7.843-1.148,11.305-3.35C50.175,38.942,51.985,37.401,50.382,34.214L50.382,34.214z M31.615,8.19c4.423,0,8.01,3.552,8.01,7.933c0,4.381-3.587,7.933-8.01,7.933c-4.424,0-8.01-3.551-8.01-7.933 C23.604,11.743,27.19,8.19,31.615,8.19L31.615,8.19z M31.615,32.246c8.992,0,16.281-7.219,16.281-16.123 C47.896,7.219,40.606,0,31.615,0c-8.993,0-16.282,7.219-16.282,16.123C15.333,25.027,22.622,32.246,31.615,32.246L31.615,32.246z"/></svg><svg height="64" viewBox="0 0 64 64" width="64" x="0" y="64"><path fill="#5C5A59" d="M16.832,29.311c-3.328,0-6.034-2.958-6.034-6.596c0-3.639,2.707-6.598,6.034-6.598 c3.319,0,6.019,2.959,6.019,6.598C22.851,26.353,20.151,29.311,16.832,29.311 M16.832,20.708c-0.78,0-1.44,0.92-1.44,2.005 c0,1.086,0.661,2.001,1.44,2.001c0.771,0,1.426-0.915,1.426-2.001C18.258,21.646,17.59,20.708,16.832,20.708"/><path fill="#5C5A59" d="M24.01,42.038H9.647c-1.202,0-2.203-0.933-2.289-2.135l-0.323-4.643c-0.156-2.311,1.486-4.777,3.747-5.616 c3.93-1.403,8.195-1.392,12.066-0.007c2.282,0.84,3.935,3.311,3.769,5.631l-0.314,4.625C26.22,41.103,25.222,42.038,24.01,42.038 M11.791,37.444h10.076l0.165-2.487c-0.005-0.24-0.355-0.855-0.75-1.002c-2.843-1.017-6.051-1.021-8.931,0.006 c-0.367,0.139-0.723,0.758-0.731,1.001L11.791,37.444z"/><path fill="#5C5A59" d="M35.268,5.148H18.043c-2.221,0-4.02,1.8-4.02,4.019c0,2.221,1.799,4.021,4.02,4.021h17.225 c2.223,0,4.021-1.799,4.021-4.021C39.288,6.948,37.49,5.148,35.268,5.148"/><path fill="#5C5A59" d="M40.629,26.012h-9.567c-1.27,0-2.297-1.028-2.297-2.298c0-1.269,1.027-2.296,2.297-2.296h9.567 c1.272,0,2.297,1.027,2.297,2.296C42.926,24.984,41.901,26.012,40.629,26.012"/><path fill="#5C5A59" d="M40.629,33.284h-9.567c-1.27,0-2.297-1.027-2.297-2.296c0-1.27,1.027-2.297,2.297-2.297h9.567 c1.272,0,2.297,1.027,2.297,2.297C42.926,32.257,41.901,33.284,40.629,33.284"/><path fill="#5C5A59" d="M49.545,60.913c-7.861,0-14.258-6.394-14.258-14.258s6.396-14.259,14.258-14.259 c7.862,0,14.259,6.395,14.259,14.259S57.407,60.913,49.545,60.913 M49.545,34.693c-6.596,0-11.96,5.368-11.96,11.962 s5.366,11.962,11.96,11.962c6.596,0,11.962-5.369,11.962-11.962C61.507,40.062,56.141,34.693,49.545,34.693"/><path fill="#5C5A59" d="M36.439,49.078H2.562c-1.269,0-2.295-1.033-2.295-2.3V9.269c0-1.268,1.026-2.297,2.295-2.297h47.151 c1.27,0,2.298,1.029,2.298,2.297v24.287h-4.595v-21.99H4.859v32.916h31.581V49.078z"/><path fill="#5C5A59" d="M49.545,55.301c-1.271,0-2.298-1.028-2.298-2.299V40.307c0-1.266,1.027-2.296,2.298-2.296 c1.268,0,2.297,1.03,2.297,2.296v12.695C51.842,54.273,50.813,55.301,49.545,55.301"/><path fill="#5C5A59" d="M55.892,48.952H43.194c-1.267,0-2.297-1.028-2.297-2.297s1.03-2.298,2.297-2.298h12.697 c1.268,0,2.298,1.029,2.298,2.298S57.159,48.952,55.892,48.952"/></svg><svg height="64" viewBox="0 0 64 64" width="64" x="0" y="128"><g fill="#5C5A59"><path d="M16.577,40.867l-0.364-0.087h-0.298c-0.403,0-1.225,0-5.505,2.284l1.458-4.16l-1.279-0.892 c-4.008-2.736-6.211-6.417-6.211-10.334c0-7.883,8.881-14.298,19.803-14.298c5.94,0,11.266,1.906,14.903,4.911 c0.9-0.079,1.822-0.141,2.752-0.141c0.947,0,1.885,0.062,2.811,0.141c-4.168-5.371-11.762-8.986-20.465-8.986 c-13.144,0-23.839,8.244-23.839,18.374c0,4.787,2.417,9.371,6.695,12.766L2.98,51.961l4.737-2.751 c3.098-1.784,6.896-3.819,8.164-4.296c1.777,0.503,3.616,0.829,5.494,1.001c-1.079-1.394-1.919-2.888-2.497-4.471 C18.102,41.287,17.331,41.098,16.577,40.867"/><path d="M63.658,36.517c0-9.005-9.77-16.331-21.824-16.331s-21.83,7.325-21.83,16.331 c0,9.023,9.775,16.332,21.83,16.332c2.898,0,5.658-0.425,8.186-1.185c0.846-0.269,9.279,4.626,9.279,4.626l-2.725-7.743 C60.918,45.558,63.658,41.292,63.658,36.517 M53.551,41.789H31.028v-2.137h22.522V41.789z M53.551,37.523H31.028v-2.133h22.522 V37.523z M53.551,33.271H31.028v-2.132h22.522V33.271z"/></g></svg><svg height="64" viewBox="0 0 64 64" width="64" x="0" y="192"><g fill="#FFF"><path d="M16.577,40.867l-0.364-0.087h-0.298c-0.403,0-1.225,0-5.505,2.284l1.458-4.16l-1.279-0.892 c-4.008-2.736-6.211-6.417-6.211-10.334c0-7.883,8.881-14.298,19.803-14.298c5.94,0,11.266,1.906,14.903,4.911 c0.9-0.079,1.822-0.141,2.752-0.141c0.947,0,1.885,0.062,2.811,0.141c-4.168-5.371-11.762-8.986-20.465-8.986 c-13.144,0-23.839,8.244-23.839,18.374c0,4.787,2.417,9.371,6.695,12.766L2.98,51.961l4.737-2.751 c3.098-1.784,6.896-3.819,8.164-4.296c1.777,0.503,3.616,0.829,5.494,1.001c-1.079-1.394-1.919-2.888-2.497-4.471 C18.102,41.287,17.331,41.098,16.577,40.867"/><path d="M63.658,36.517c0-9.005-9.77-16.331-21.824-16.331s-21.83,7.325-21.83,16.331 c0,9.023,9.775,16.332,21.83,16.332c2.898,0,5.658-0.425,8.186-1.185c0.846-0.269,9.279,4.626,9.279,4.626l-2.725-7.743 C60.918,45.558,63.658,41.292,63.658,36.517 M53.551,41.789H31.028v-2.137h22.522V41.789z M53.551,37.523H31.028v-2.133h22.522 V37.523z M53.551,33.271H31.028v-2.132h22.522V33.271z"/></g></svg><svg height="64" viewBox="0 0 64 64" width="64" x="0" y="256"><path fill="#FFF" d="M17.572,21.289h6.599v-2.993v-2.933v-0.489c0-2.823,0.073-7.186,2.127-9.886 c2.163-2.86,5.133-4.803,10.241-4.803c8.321,0,11.829,1.186,11.829,1.186l-1.65,9.776c0,0-2.749-0.795-5.315-0.795 s-4.863,0.917-4.863,3.483v1.039v3.422v2.993h10.521l-0.734,9.545h-9.787V64H24.171V30.834h-6.599V21.289L17.572,21.289z"/></svg><svg height="64" viewBox="0 0 64 64" width="64" x="0" y="320"><path fill="#5C5A59" d="M47.221,3.036c-3.543-4.138-9.021-3.009-12.193-0.316C33.651,3.877,32.695,5.74,32,7.771 c-0.687-2.031-1.645-3.894-3.017-5.051c-3.176-2.693-8.654-3.821-12.201,0.316c-3.488,4.188-1.476,9.396,1.7,12.079 c3.264,2.761,10.104,2.584,13.518,2.474c3.41,0.111,10.253,0.288,13.519-2.474C48.688,12.432,50.707,7.225,47.221,3.036 M20.511,12.729c-1.807-1.544-3.664-4.846-1.328-7.678c2.391-2.759,5.964-1.472,7.777,0.053c1.958,1.661,2.896,6.343,3.356,9.377 C27.249,14.539,22.461,14.371,20.511,12.729 M43.489,12.729c-1.948,1.642-6.726,1.81-9.812,1.753 c0.467-3.035,1.416-7.716,3.369-9.377c1.824-1.525,5.394-2.812,7.785-0.053C47.159,7.883,45.307,11.185,43.489,12.729"/><path fill="#5C5A59" d="M26.77,19.486H8.852c-0.253,0-0.446,0.197-0.446,0.449v12.238c0,0.252,0.193,0.448,0.446,0.448H26.77V19.486 z"/><path fill="#5C5A59" d="M55.156,19.486H37.239v13.135h17.917c0.239,0,0.447-0.196,0.447-0.448V19.935 C55.604,19.683,55.396,19.486,55.156,19.486"/><path fill="#5C5A59" d="M11.391,34.867v28.378c0,0.24,0.202,0.448,0.449,0.448h15.889V34.697c0-0.102,0.01-0.197,0.022-0.288H11.839 C11.592,34.409,11.391,34.614,11.391,34.867"/><path fill="#5C5A59" d="M52.172,34.409H36.254c0.011,0.091,0.026,0.187,0.026,0.288v28.996h15.892c0.242,0,0.442-0.208,0.442-0.448 V34.867C52.614,34.61,52.414,34.409,52.172,34.409"/><path fill="#5C5A59" d="M50.422 17.063L57.086 17.076 53.14 15.133 56.001 11.808 49.888 14.424 43.78 17.057z"/><path fill="#5C5A59" d="M13.575 17.063L20.229 17.057 14.117 14.424 7.997 11.808 10.865 15.133 6.914 17.076z"/></svg><svg height="64" viewBox="0 0 64 64" width="64" x="0" y="384"><path fill="#FFF" d="M47.221,3.036c-3.543-4.138-9.021-3.009-12.193-0.316C33.651,3.877,32.695,5.74,32,7.771 c-0.687-2.031-1.645-3.894-3.017-5.051c-3.176-2.693-8.654-3.821-12.201,0.316c-3.488,4.188-1.476,9.396,1.7,12.079 c3.264,2.761,10.104,2.584,13.518,2.474c3.41,0.111,10.253,0.288,13.519-2.474C48.688,12.432,50.707,7.225,47.221,3.036 M20.511,12.729c-1.807-1.544-3.664-4.846-1.328-7.678c2.391-2.759,5.964-1.472,7.777,0.053c1.958,1.661,2.896,6.343,3.356,9.377 C27.249,14.539,22.461,14.371,20.511,12.729 M43.489,12.729c-1.948,1.642-6.726,1.81-9.812,1.753 c0.467-3.035,1.416-7.716,3.369-9.377c1.824-1.525,5.394-2.812,7.785-0.053C47.159,7.883,45.307,11.185,43.489,12.729"/><path fill="#FFF" d="M26.77,19.486H8.852c-0.253,0-0.446,0.197-0.446,0.449v12.238c0,0.252,0.193,0.448,0.446,0.448H26.77V19.486 z"/><path fill="#FFF" d="M55.156,19.486H37.239v13.135h17.917c0.239,0,0.447-0.196,0.447-0.448V19.935 C55.604,19.683,55.396,19.486,55.156,19.486"/><path fill="#FFF" d="M11.391,34.867v28.378c0,0.24,0.202,0.448,0.449,0.448h15.889V34.697c0-0.102,0.01-0.197,0.022-0.288H11.839 C11.592,34.409,11.391,34.614,11.391,34.867"/><path fill="#FFF" d="M52.172,34.409H36.254c0.011,0.091,0.026,0.187,0.026,0.288v28.996h15.892c0.242,0,0.442-0.208,0.442-0.448 V34.867C52.614,34.61,52.414,34.409,52.172,34.409"/><path fill="#FFF" d="M50.422 17.063L57.086 17.076 53.14 15.133 56.001 11.808 49.888 14.424 43.78 17.057z"/><path fill="#FFF" d="M13.575 17.063L20.229 17.057 14.117 14.424 7.997 11.808 10.865 15.133 6.914 17.076z"/></svg><svg height="64" viewBox="0 0 64 64" width="64" x="0" y="448"><path fill="#003451" d="M19.363 16.251L19.363 63.645 32 57.324 44.638 63.645 44.638 16.251z"/><path fill="#3D5D74" d="M19.363 16.251L19.363 63.645 32 57.324 32.021 16.251z"/><path fill="#D73B2D" d="M57.276,25.729c0-2.573-1.54-4.783-3.747-5.769c1.419-1.957,1.648-4.64,0.361-6.868 c-1.287-2.229-3.726-3.373-6.13-3.123c0.251-2.403-0.893-4.843-3.121-6.13c-2.23-1.286-4.915-1.058-6.871,0.362 C36.783,1.993,34.573,0.454,32,0.454S27.217,1.993,26.231,4.2c-1.957-1.418-4.641-1.647-6.869-0.361 C17.133,5.126,15.99,7.566,16.24,9.97c-2.404-0.25-4.843,0.894-6.13,3.122c-1.286,2.228-1.057,4.912,0.362,6.868 c-2.207,0.986-3.748,3.195-3.748,5.769c0,2.573,1.541,4.783,3.748,5.77c-1.418,1.958-1.647,4.641-0.36,6.87 c1.169,2.025,3.294,3.159,5.478,3.159c0.217,0,0.435-0.02,0.652-0.042c-0.252,2.405,0.892,4.846,3.122,6.136 c0.995,0.571,2.082,0.846,3.153,0.846c1.329,0,2.632-0.425,3.715-1.21c0.986,2.208,3.196,3.75,5.77,3.75 c2.573,0,4.783-1.542,5.769-3.751c1.083,0.786,2.387,1.211,3.715,1.211c1.073,0,2.159-0.274,3.155-0.846 c2.229-1.29,3.373-3.73,3.121-6.136c0.217,0.022,0.435,0.042,0.651,0.042c2.185,0,4.309-1.134,5.479-3.159 c1.287-2.229,1.059-4.913-0.359-6.87C55.736,30.512,57.276,28.302,57.276,25.729z"/><path fill="#F7AE00" d="M49.378,25.729c0,9.598-7.78,17.377-17.378,17.377c-9.597,0-17.377-7.779-17.377-17.377 c0-9.596,7.78-17.378,17.377-17.378C41.598,8.351,49.378,16.133,49.378,25.729"/><path fill="#D73B2D" d="M32 30.325L37.706 33.326 36.618 26.971 41.235 22.472 34.854 21.544 32 15.761 29.147 21.544 22.767 22.472 27.383 26.971 26.293 33.326z"/></svg><svg height="64" viewBox="0 0 64 64" width="64" x="0" y="512"><path fill="#FCC200" d="M32.001,61.797C15.545,61.797,2.204,48.456,2.204,32c0-16.457,13.341-29.796,29.797-29.796 c16.455,0,29.796,13.339,29.796,29.796C61.797,48.456,48.456,61.797,32.001,61.797"/><path fill="#FFF" d="M13.825,45.729c-0.914,0-1.657-0.744-1.657-1.656v-24.14c0-0.913,0.743-1.656,1.657-1.656h33.96 c0.915,0,1.654,0.744,1.654,1.656v24.14c0,0.914-0.739,1.658-1.654,1.658h-33.96V45.729z"/><path fill="#B8DFEB" d="M14.063 22.83H22.216V23.564H14.063z"/><path fill="#B8DFEB" d="M41.626 22.83H46.806999999999995V23.564H41.626z"/><path fill="#B8DFEB" d="M35.09 22.83H40.272000000000006V23.564H35.09z"/><path fill="#B8DFEB" d="M28.556 22.83H33.736000000000004V23.564H28.556z"/><path fill="#E95B1D" d="M14.063 26.354H28.806V42.58H14.063z"/><path fill="#D83819" d="M13.864,26.156v16.622h0.199h14.743h0.199V42.58V26.355v-0.199H13.864z M21.167,34.467l-6.906,7.599V26.866 L21.167,34.467z M14.511,26.553h13.849l-6.925,7.62L14.511,26.553z M28.607,26.866v15.201l-6.905-7.6L28.607,26.866z M14.511,42.383 l6.923-7.621l6.924,7.621H14.511z"/><path fill="#E95B1D" d="M30.966 26.663H39.711V27.856H30.966z"/><path fill="#B8DFEB" d="M30.966 29.698H46.774V30.431H30.966z"/><path fill="#B8DFEB" d="M30.966 31.953H44.403V32.689H30.966z"/><path fill="#B8DFEB" d="M30.966 34.208H45.852000000000004V34.943H30.966z"/><path fill="#B8DFEB" d="M30.966 36.464H42.551V37.199999999999996H30.966z"/><path fill="#E95B1D" d="M30.966 39.325H36.081V41.471000000000004H30.966z"/><path fill="#FFF" d="M31.823 40.029H35.222V40.765H31.823z"/><path fill="#A0C9D9" d="M48.493,18.156h-0.708h-33.96h-0.706c-0.591,0-1.07,0.479-1.07,1.07v0.706v1.318v22.822 c0,0.98,0.795,1.777,1.776,1.777h33.96c0.982,0,1.775-0.799,1.775-1.777V21.25v-1.318v-0.706 C49.561,18.635,49.082,18.156,48.493,18.156z M19.241,19.199h28.764v1.073H19.241V19.199z M16.977,19.14 c0.329,0,0.596,0.267,0.596,0.597s-0.268,0.597-0.596,0.597c-0.33,0-0.596-0.267-0.596-0.597S16.647,19.14,16.977,19.14z M15.308,19.14c0.329,0,0.595,0.267,0.595,0.597s-0.266,0.597-0.595,0.597s-0.599-0.267-0.599-0.597S14.979,19.14,15.308,19.14z M13.637,19.14c0.33,0,0.598,0.267,0.598,0.597s-0.269,0.597-0.598,0.597c-0.328,0-0.595-0.267-0.595-0.597 S13.309,19.14,13.637,19.14z M49.323,44.072c0,0.847-0.69,1.539-1.538,1.539h-33.96c-0.848,0-1.537-0.692-1.537-1.539V21.25h37.035 V44.072z"/></svg><svg height="64" viewBox="0 0 64 64" width="64" x="0" y="576"><path fill="#EB8500" d="M62.238,33.471c-0.353,0.356-0.84,0.578-1.38,0.578H2.146c-1.075,0-1.948-0.88-1.948-1.969 c0-1.088,0.874-1.968,1.948-1.968h58.713c1.079,0,1.949,0.88,1.949,1.968C62.808,32.626,62.59,33.117,62.238,33.471"/><path fill="#EB8500" d="M63.276,33.707L36.777,60.469c-0.764,0.767-1.996,0.767-2.755,0c-0.763-0.767-0.763-2.016,0-2.783 l25.122-25.37L34.022,6.943c-0.763-0.768-0.763-2.013,0-2.783c0.759-0.768,1.991-0.766,2.755,0.003l26.499,26.762 C64.036,31.688,64.036,32.938,63.276,33.707"/></svg><svg height="64" viewBox="0 0 64 64" width="64" x="0" y="640"><path fill="#FCC200" d="M31.917,61.947C15.671,61.947,2.5,48.777,2.5,32.529c0-16.246,13.171-29.415,29.417-29.415 c16.244,0,29.415,13.168,29.415,29.415C61.332,48.777,48.161,61.947,31.917,61.947"/><path fill="#FFF" d="M13.767,55.591H50.19c1.343-1.06,2.591-2.231,3.729-3.506V4.412H9.914v47.531 C11.086,53.271,12.375,54.492,13.767,55.591z"/><path fill="#FFF" d="M53.92,1.219c0-0.182-0.15-0.331-0.333-0.331C53.77,0.888,53.92,1.038,53.92,1.219z"/><path fill="#D2E7F2" d="M31.979,61.916c6.879,0,13.201-2.368,18.211-6.325H13.767C18.777,59.548,25.1,61.916,31.979,61.916z"/><path fill="#D2E7F2" d="M10.246,0.888c-0.185,0-0.332,0.149-0.332,0.331C9.914,1.038,10.061,0.888,10.246,0.888z"/><path fill="#D2E7F2" d="M53.587,0.888H10.246c-0.185,0-0.332,0.15-0.332,0.331v3.193H53.92V1.219 C53.92,1.038,53.77,0.888,53.587,0.888z"/><path fill="#2F97CB" d="M9.915 15.891H53.92V32.529H9.915z"/><path fill="#D2E7F2" d="M19.917 21.042H43.828V22.611H19.917z"/><path fill="#D2E7F2" d="M17.367 24.141H46.379000000000005V24.534H17.367z"/><path fill="#D2E7F2" d="M16.189 25.563H47.559V25.956999999999997H16.189z"/><path fill="#D2E7F2" d="M20.035 26.986H43.712V27.379H20.035z"/><path fill="#D2E7F2" d="M26.03 7.927H37.803V10.708H26.03z"/><path fill="#A0C9D9" d="M15.526 12.263H21.353V12.655H15.526z"/><path fill="#A0C9D9" d="M22.265 12.263H28.092V12.655H22.265z"/><path fill="#A0C9D9" d="M29.003 12.263H34.829V12.655H29.003z"/><path fill="#A0C9D9" d="M35.743 12.263H41.568000000000005V12.655H35.743z"/><path fill="#A0C9D9" d="M42.479 12.263H48.307V12.655H42.479z"/><path fill="#FFF" d="M51.646 23.376L51.361 23.585 51.687 24.033 50.417 24.033 50.417 24.387 51.686 24.387 51.361 24.836 51.646 25.044 52.25 24.209z"/><path fill="#FFF" d="M13.416 24.033L12.147 24.033 12.474 23.585 12.188 23.376 11.581 24.209 12.188 25.044 12.474 24.836 12.148 24.387 13.416 24.387z"/><path fill="#D2E7F2" d="M13.608 34.809H24.268V45.471H13.608z"/><path fill="#A0C9D9" d="M24.444,34.632H13.432v11.013h11.013L24.444,34.632L24.444,34.632z M13.785,35.233l4.903,4.905 l-4.903,4.903V35.233z M14.035,34.984h9.807l-4.903,4.904L14.035,34.984z M18.938,40.389l4.901,4.902h-9.803L18.938,40.389z M19.188,40.138l4.903-4.904v9.809L19.188,40.138z"/><path fill="#D2E7F2" d="M26.587 34.809H37.248V45.471H26.587z"/><path fill="#A0C9D9" d="M26.41,34.632v11.013h11.012V34.632H26.41z M26.765,35.234l4.902,4.904l-4.902,4.903V35.234z M27.013,34.984h9.805l-4.901,4.904L27.013,34.984z M31.917,40.388l4.901,4.903h-9.802L31.917,40.388z M32.167,40.138l4.906-4.907 v9.813L32.167,40.138z"/><path fill="#D2E7F2" d="M39.564 34.809H50.224000000000004V45.471H39.564z"/><path fill="#A0C9D9" d="M39.391,34.632v11.013h11.012V34.632H39.391z M39.744,35.237l4.901,4.901l-4.901,4.9V35.237z M39.993,34.984H49.8l-4.904,4.904L39.993,34.984z M44.896,40.389l4.903,4.902h-9.805L44.896,40.389z M45.146,40.139l4.903-4.904 v9.81L45.146,40.139z"/><path fill="#D2E7F2" d="M13.432 47.891H24.221V48.282H13.432z"/><path fill="#D2E7F2" d="M13.432 48.912H23.248V49.305H13.432z"/><path fill="#D2E7F2" d="M13.432 49.93H24.221V50.326H13.432z"/><path fill="#D2E7F2" d="M13.432 50.952H22.043V51.344H13.432z"/><path fill="#2F97CB" d="M13.432 46.92H19.26V47.311H13.432z"/><path fill="#D2E7F2" d="M26.41 47.891H37.199V48.282H26.41z"/><path fill="#D2E7F2" d="M26.41 48.912H36.226V49.305H26.41z"/><path fill="#D2E7F2" d="M26.41 49.93H37.199V50.326H26.41z"/><path fill="#D2E7F2" d="M26.41 50.952H35.019V51.344H26.41z"/><path fill="#2F97CB" d="M26.41 46.92H32.238V47.311H26.41z"/><path fill="#D2E7F2" d="M39.389 47.891H50.175000000000004V48.282H39.389z"/><path fill="#D2E7F2" d="M39.389 48.912H49.204V49.305H39.389z"/><path fill="#D2E7F2" d="M39.389 49.93H50.175000000000004V50.326H39.389z"/><path fill="#D2E7F2" d="M39.389 50.952H48V51.344H39.389z"/><path fill="#2F97CB" d="M39.389 46.92H45.215V47.311H39.389z"/><path fill="#BBBE2F" d="M15.599,2.62c0,0.312-0.252,0.565-0.563,0.565c-0.313,0-0.566-0.253-0.566-0.565s0.254-0.564,0.566-0.564 C15.347,2.055,15.599,2.308,15.599,2.62"/><path fill="#FECB00" d="M13.757,2.62c0,0.312-0.251,0.565-0.564,0.565c-0.311,0-0.564-0.253-0.564-0.565s0.253-0.564,0.564-0.564 C13.506,2.055,13.757,2.308,13.757,2.62"/><path fill="#E95B1D" d="M11.916,2.62c0,0.312-0.251,0.565-0.565,0.565c-0.313,0-0.563-0.253-0.563-0.565s0.251-0.564,0.563-0.564 C11.665,2.055,11.916,2.308,11.916,2.62"/></svg><svg height="64" viewBox="0 0 64 64" width="64" x="0" y="704"><g fill="#5C5A59"><path d="M32.307,30.267c-5.278,0-9.575-4.779-9.575-10.647c0-5.871,4.297-10.647,9.575-10.647 c5.276,0,9.571,4.776,9.571,10.647C41.878,25.487,37.583,30.267,32.307,30.267 M32.307,14.032c-2.491,0-4.517,2.503-4.517,5.587 c0,3.082,2.026,5.589,4.517,5.589c2.49,0,4.511-2.507,4.511-5.589C36.819,16.535,34.799,14.032,32.307,14.032"/><path d="M45.692,55.028H18.574c-1.327,0-2.429-1.028-2.524-2.354c-0.207-2.934-0.403-5.872-0.595-8.76 c-0.244-3.545,2.405-7.485,5.898-8.776c6.964-2.504,14.615-2.489,21.538-0.009c3.522,1.292,6.17,5.235,5.923,8.796l-0.598,8.749 C48.122,53.999,47.019,55.028,45.692,55.028 M20.934,49.969h22.396l0.437-6.392c0.072-1.078-0.983-3.1-2.601-3.696 c-5.78-2.069-12.252-2.078-18.083,0.009c-1.591,0.586-2.652,2.612-2.578,3.684C20.64,45.688,20.789,47.828,20.934,49.969"/><path d="M45.692,55.028H18.574c-1.327,0-2.429-1.028-2.524-2.354c-0.207-2.934-0.403-5.872-0.595-8.76 c-0.244-3.545,2.405-7.485,5.898-8.776c6.964-2.504,14.615-2.489,21.538-0.009c3.522,1.292,6.17,5.235,5.923,8.796l-0.598,8.749 C48.122,53.999,47.019,55.028,45.692,55.028 M20.934,49.969h22.396l0.437-6.392c0.072-1.078-0.983-3.1-2.601-3.696 c-5.78-2.069-12.252-2.078-18.083,0.009c-1.591,0.586-2.652,2.612-2.578,3.684C20.64,45.688,20.789,47.828,20.934,49.969"/><path d="M62.094,50.918H51.298c-0.702,0-1.264-0.566-1.264-1.266s0.564-1.263,1.264-1.263h9.615l0.44-6.375 c0.094-1.388-1.129-3.488-2.848-4.116c-2.454-0.881-5.034-1.351-7.663-1.395c-0.702-0.012-1.256-0.588-1.243-1.285 c0.015-0.693,0.577-1.244,1.262-1.244h0.025c2.905,0.049,5.756,0.567,8.479,1.544c2.634,0.966,4.693,4.02,4.511,6.668l-0.517,7.555 C63.312,50.404,62.763,50.918,62.094,50.918"/><path d="M53.789,31.229c-3.724,0-6.761-3.406-6.761-7.596c0-4.183,3.037-7.592,6.761-7.592 c3.72,0,6.749,3.409,6.749,7.592C60.538,27.82,57.509,31.229,53.789,31.229 M53.789,18.572c-2.333,0-4.228,2.271-4.228,5.061 c0,2.794,1.895,5.066,4.228,5.066c2.326,0,4.22-2.272,4.22-5.066C58.009,20.843,56.115,18.572,53.789,18.572"/><path d="M12.929,50.918H2.127c-0.662,0-1.215-0.514-1.26-1.178l-0.519-7.558c-0.183-2.646,1.877-5.699,4.501-6.663 c2.732-0.979,5.584-1.497,8.489-1.546c0.731,0.096,1.275,0.543,1.291,1.243c0.009,0.697-0.545,1.274-1.248,1.286 c-2.627,0.044-5.208,0.515-7.668,1.396C4,38.525,2.779,40.625,2.874,42.012l0.435,6.377h9.62c0.702,0,1.264,0.564,1.264,1.263 C14.194,50.352,13.63,50.918,12.929,50.918"/><path d="M10.438,31.229c-3.72,0-6.749-3.406-6.749-7.596c0-4.183,3.028-7.592,6.749-7.592 c3.726,0,6.76,3.409,6.76,7.592C17.198,27.82,14.164,31.229,10.438,31.229 M10.438,18.572c-2.327,0-4.218,2.271-4.218,5.061 c0,2.794,1.891,5.066,4.218,5.066c2.333,0,4.23-2.272,4.23-5.066C14.667,20.843,12.771,18.572,10.438,18.572"/></g></svg><svg height="64" viewBox="0 0 64 64" width="64" x="0" y="768"><path fill="#5C5A59" d="M61.364,59.062H2.641c-1.499,0-2.711-1.212-2.711-2.71V7.414c0-1.499,1.212-2.71,2.711-2.71h58.724 c1.498,0,2.71,1.212,2.71,2.71v48.939C64.074,57.851,62.863,59.062,61.364,59.062 M5.351,53.643h53.304V10.122H5.351V53.643z"/><path fill="#5C5A59" d="M59.587,49.272c-0.625,0-1.255-0.215-1.764-0.651L46.93,39.283l-13.558,9.038L16.171,29.817L4.588,41.776 c-1.048,1.081-2.77,1.102-3.833,0.063c-1.081-1.043-1.106-2.758-0.064-3.833l15.56-16.068l17.953,19.314l13.133-8.76l14.015,12.009 c1.138,0.974,1.27,2.687,0.297,3.821C61.104,48.951,60.348,49.272,59.587,49.272"/><path fill="#5C5A59" d="M35.229,31.594c-5.355,0-9.72-4.361-9.72-9.72s4.364-9.718,9.72-9.718s9.713,4.359,9.713,9.718 S40.586,31.594,35.229,31.594 M35.229,17.578c-2.367,0-4.3,1.927-4.3,4.296c0,2.368,1.933,4.298,4.3,4.298 c2.364,0,4.292-1.93,4.292-4.298C39.521,19.505,37.594,17.578,35.229,17.578"/></svg><svg height="64" viewBox="0 0 64 64" width="64" x="0" y="832"><path fill="#FFF" d="M0.365,57.97h56.414V13.15H0.365V57.97z M52.824,54.025H4.316V17.113h48.508V54.025z"/><path fill="#FFF" d="M23.828,26.198c0,2.553-2.069,4.618-4.618,4.618c-2.546,0-4.613-2.065-4.613-4.618 c0-2.548,2.066-4.609,4.613-4.609C21.759,21.588,23.828,23.649,23.828,26.198"/><path fill="#FFF" d="M50.453 36.813L39.385 28.182 24.606 40.305 14.067 36.086 6.692 39.438 6.692 51.644 50.453 51.644z"/><path fill="#FFF" d="M7.222 6.03L7.222 11.578 11.173 11.578 11.173 9.982 59.689 9.982 59.689 46.908 58.366 46.908 58.366 50.857 63.635 50.857 63.635 6.03z"/></svg><svg height="64" viewBox="0 0 64 64" width="64" x="0" y="896"><path fill="#5C5A59" d="M14.656 2.95L45.059 32.025 14.656 61.094 17.299 63.871 50.6 32.025 17.299 0.187z"/></svg><svg height="64" viewBox="0 0 64 64" width="64" x="0" y="960"><path fill="#FFF" d="M63.813,12.268c-2.342,1.038-4.857,1.739-7.496,2.055c2.694-1.616,4.763-4.173,5.737-7.222 c-2.521,1.496-5.314,2.583-8.289,3.168c-2.381-2.538-5.772-4.123-9.526-4.123c-7.211,0-13.053,5.844-13.053,13.053 c0,1.023,0.114,2.02,0.336,2.975C20.674,21.63,11.055,16.433,4.618,8.535c-1.123,1.928-1.768,4.171-1.768,6.563 c0,4.529,2.304,8.524,5.808,10.865c-2.14-0.068-4.153-0.655-5.913-1.633c-0.001,0.055-0.001,0.109-0.001,0.164 c0,6.325,4.499,11.601,10.471,12.8c-1.095,0.299-2.249,0.458-3.439,0.458c-0.842,0-1.659-0.083-2.457-0.233 c1.662,5.185,6.482,8.959,12.194,9.063C15.046,50.083,9.417,52.17,3.302,52.17c-1.054,0-2.093-0.061-3.114-0.183 c5.777,3.703,12.639,5.865,20.01,5.865c24.01,0,37.138-19.891,37.138-37.14c0-0.565-0.012-1.128-0.037-1.688 C59.851,17.184,62.063,14.884,63.813,12.268L63.813,12.268z"/></svg><svg height="64" viewBox="0 0 64 64" width="64" x="0" y="1024"><g fill="#5C5A59"><path d="M61.7,3.952H2.314c-1.115,0-2.012,0.9-2.012,2.016v52.338c0,1.095,0.897,2.017,2.012,2.017H61.7 c1.101,0,1.998-0.922,1.998-2.017V5.968C63.698,4.853,62.801,3.952,61.7,3.952 M59.681,54.419H17.907 c-0.477,1.189-1.647,2.047-3.007,2.047c-1.374,0-2.524-0.857-3.014-2.047H4.328v-2.422h7.558c0.49-1.191,1.64-2.054,3.014-2.054 c1.36,0,2.531,0.862,3.007,2.054h41.774V54.419z M59.681,46.211H4.328V7.983h55.353V46.211z"/><path d="M40.789,26.146c1.016,0.593,1.016,1.553,0,2.145L25.738,36.98c-1.023,0.593-1.837,0.103-1.837-1.072V18.541 c0-1.178,0.827-1.654,1.837-1.066L40.789,26.146z"/></g></svg><svg height="64" viewBox="0 0 64 64" width="64" x="0" y="1088"><g fill="#FFF"><path d="M61.7,3.952H2.314c-1.115,0-2.012,0.9-2.012,2.016v52.338c0,1.095,0.897,2.017,2.012,2.017H61.7 c1.101,0,1.998-0.922,1.998-2.017V5.968C63.698,4.853,62.801,3.952,61.7,3.952 M59.681,54.419H17.907 c-0.477,1.189-1.647,2.047-3.007,2.047c-1.374,0-2.524-0.857-3.014-2.047H4.328v-2.422h7.558c0.49-1.191,1.64-2.054,3.014-2.054 c1.36,0,2.531,0.862,3.007,2.054h41.774V54.419z M59.681,46.211H4.328V7.983h55.353V46.211z"/><path d="M40.789,26.146c1.016,0.593,1.016,1.553,0,2.145L25.738,36.98c-1.023,0.593-1.837,0.103-1.837-1.072V18.541 c0-1.178,0.827-1.654,1.837-1.066L40.789,26.146z"/></g></svg><svg height="64" viewBox="0 0 64 64" width="64" x="0" y="1152"><path fill-rule="evenodd" clip-rule="evenodd" fill="#FFF" d="M6.619,0.275h28.973c9.534,0,17.649,4.671,17.641,14.115 c-0.008,7.886-2.862,10.953-8.729,14.422c0.502,0.413,3.863,1.415,4.991,1.972c1.808,0.891,2.871,1.791,4.061,3 c3.329,3.385,3.948,6.477,3.948,11.784c0,12.315-11.911,18.508-23.383,18.508H6.496L6.619,0.275L6.619,0.275z M22.363,17.038 l-0.002,8.285c7.463,0,14.476,0.982,14.476-7.109c0-7.492-7.934-6.257-14.481-6.257L22.363,17.038L22.363,17.038z M22.359,52.332 c8.177,0,18.28,1.347,18.457-7.938c0.187-9.685-10.377-7.937-18.453-7.937L22.359,52.332L22.359,52.332z"/></svg></svg>