<?xml version="1.0" encoding="utf-8"?>
<!-- Generator: Adobe Illustrator 14.0.0, SVG Export Plug-In . SVG Version: 6.00 Build 43363)  -->
<!DOCTYPE svg PUBLIC "-//W3C//DTD SVG 1.1//EN" "http://www.w3.org/Graphics/SVG/1.1/DTD/svg11.dtd">
<svg version="1.1" id="Слой_1" xmlns="http://www.w3.org/2000/svg" xmlns:xlink="http://www.w3.org/1999/xlink" x="0px" y="0px"
	 width="64px" height="64px" viewBox="0 0 64 64" enable-background="new 0 0 64 64" xml:space="preserve">
<path fill="#FFFFFF" d="M0.365,57.97h56.414V13.15H0.365V57.97z M52.824,54.025H4.316V17.113h48.508V54.025z"/>
<path fill="#FFFFFF" d="M23.828,26.198c0,2.553-2.069,4.618-4.618,4.618c-2.546,0-4.613-2.065-4.613-4.618
	c0-2.548,2.066-4.609,4.613-4.609C21.759,21.588,23.828,23.649,23.828,26.198"/>
<polygon fill="#FFFFFF" points="50.453,36.813 39.385,28.182 24.606,40.305 14.067,36.086 6.692,39.438 6.692,51.644 50.453,51.644 
	"/>
<polygon fill="#FFFFFF" points="7.222,6.03 7.222,11.578 11.173,11.578 11.173,9.982 59.689,9.982 59.689,46.908 58.366,46.908 
	58.366,50.857 63.635,50.857 63.635,6.03 "/>
</svg>
