<svg id="Слой_1" xmlns="http://www.w3.org/2000/svg" width="64" height="64" viewBox="0 0 64 64"><g fill="#FFF"><path d="M43.849,36.012c-2.647-1.262-5.485-2.058-8.382-2.404c0.099-0.683,0.194-1.373,0.295-2.06 c0.641-0.41,1.1-1.015,1.142-1.519c0.076-0.643,0.151-1.278,0.226-1.914c0.091,0.092,0.211,0.159,0.347,0.174 c0.304,0.029,0.58-0.192,0.607-0.497l0.306-2.942c0.035-0.309-0.191-0.574-0.494-0.607c-0.115-0.014-0.229,0.012-0.327,0.064 c0.066-0.563,0.136-1.119,0.198-1.683c0.051-0.763,0.432-2.811-1.045-4.128c-2.139-2.098-6.845-2.098-8.981,0 c-1.476,1.317-1.1,3.365-1.044,4.128c0.061,0.564,0.129,1.12,0.194,1.683c-0.095-0.053-0.208-0.078-0.327-0.064 c-0.299,0.033-0.529,0.298-0.497,0.607l0.308,2.942c0.033,0.305,0.304,0.526,0.606,0.497c0.136-0.015,0.259-0.082,0.351-0.174 c0.072,0.635,0.146,1.271,0.218,1.914c0.045,0.504,0.504,1.108,1.153,1.519c0.095,0.687,0.189,1.375,0.288,2.06 c-2.891,0.347-5.734,1.143-8.387,2.404c-0.855,0.452-1.457,1.615-1.365,2.513c0.098,1.037,0.203,2.072,0.311,3.107 c0.092,0.9,0.864,1.795,1.719,1.956c7.271,1.167,14.65,1.167,21.918,0c0.86-0.161,1.633-1.056,1.726-1.956 c0.105-1.035,0.206-2.07,0.307-3.107C45.305,37.627,44.709,36.464,43.849,36.012z"/><path d="M0.111 30.693H10.135V33.307H0.111z"/><path d="M53.77 30.693H63.793000000000006V33.307H53.77z"/><path transform="rotate(135.004 12.98 50.97)" d="M7.968 49.666H17.991999999999997V52.278999999999996H7.968z"/><path transform="rotate(135 50.923 13.03)" d="M45.91 11.724H55.934999999999995V14.337H45.91z"/><path transform="rotate(-135 12.98 13.03)" d="M7.969 11.723H17.993V14.336H7.969z"/><path transform="rotate(-135.004 50.92 50.97)" d="M45.911 49.665H55.935V52.278999999999996H45.911z"/><path d="M30.645 53.817H33.26V63.84H30.645z"/><path d="M30.645 0.159H33.26V10.183H30.645z"/></g></svg>