<svg id="Слой_1" xmlns="http://www.w3.org/2000/svg" width="64" height="64" viewBox="0 0 64 64"><path fill="#FCC200" d="M32.001,61.797C15.545,61.797,2.204,48.456,2.204,32c0-16.457,13.341-29.796,29.797-29.796 c16.455,0,29.796,13.339,29.796,29.796C61.797,48.456,48.456,61.797,32.001,61.797"/><path fill="#FFF" d="M13.825,45.729c-0.914,0-1.657-0.744-1.657-1.656v-24.14c0-0.913,0.743-1.656,1.657-1.656h33.96 c0.915,0,1.654,0.744,1.654,1.656v24.14c0,0.914-0.739,1.658-1.654,1.658h-33.96V45.729z"/><path fill="#B8DFEB" d="M14.063 22.83H22.216V23.564H14.063z"/><path fill="#B8DFEB" d="M41.626 22.83H46.806999999999995V23.564H41.626z"/><path fill="#B8DFEB" d="M35.09 22.83H40.272000000000006V23.564H35.09z"/><path fill="#B8DFEB" d="M28.556 22.83H33.736000000000004V23.564H28.556z"/><path fill="#E95B1D" d="M14.063 26.354H28.806V42.58H14.063z"/><path fill="#D83819" d="M13.864,26.156v16.622h0.199h14.743h0.199V42.58V26.355v-0.199H13.864z M21.167,34.467l-6.906,7.599V26.866 L21.167,34.467z M14.511,26.553h13.849l-6.925,7.62L14.511,26.553z M28.607,26.866v15.201l-6.905-7.6L28.607,26.866z M14.511,42.383 l6.923-7.621l6.924,7.621H14.511z"/><path fill="#E95B1D" d="M30.966 26.663H39.711V27.856H30.966z"/><path fill="#B8DFEB" d="M30.966 29.698H46.774V30.431H30.966z"/><path fill="#B8DFEB" d="M30.966 31.953H44.403V32.689H30.966z"/><path fill="#B8DFEB" d="M30.966 34.208H45.852000000000004V34.943H30.966z"/><path fill="#B8DFEB" d="M30.966 36.464H42.551V37.199999999999996H30.966z"/><path fill="#E95B1D" d="M30.966 39.325H36.081V41.471000000000004H30.966z"/><path fill="#FFF" d="M31.823 40.029H35.222V40.765H31.823z"/><path fill="#A0C9D9" d="M48.493,18.156h-0.708h-33.96h-0.706c-0.591,0-1.07,0.479-1.07,1.07v0.706v1.318v22.822 c0,0.98,0.795,1.777,1.776,1.777h33.96c0.982,0,1.775-0.799,1.775-1.777V21.25v-1.318v-0.706 C49.561,18.635,49.082,18.156,48.493,18.156z M19.241,19.199h28.764v1.073H19.241V19.199z M16.977,19.14 c0.329,0,0.596,0.267,0.596,0.597s-0.268,0.597-0.596,0.597c-0.33,0-0.596-0.267-0.596-0.597S16.647,19.14,16.977,19.14z M15.308,19.14c0.329,0,0.595,0.267,0.595,0.597s-0.266,0.597-0.595,0.597s-0.599-0.267-0.599-0.597S14.979,19.14,15.308,19.14z M13.637,19.14c0.33,0,0.598,0.267,0.598,0.597s-0.269,0.597-0.598,0.597c-0.328,0-0.595-0.267-0.595-0.597 S13.309,19.14,13.637,19.14z M49.323,44.072c0,0.847-0.69,1.539-1.538,1.539h-33.96c-0.848,0-1.537-0.692-1.537-1.539V21.25h37.035 V44.072z"/></svg>